<?xml version="1.0" standalone="no"?>
<!DOCTYPE svg PUBLIC "-//W3C//DTD SVG 20010904//EN"
 "http://www.w3.org/TR/2001/REC-SVG-20010904/DTD/svg10.dtd">
<svg version="1.0" xmlns="http://www.w3.org/2000/svg"
 width="152.000000pt" height="152.000000pt" viewBox="0 0 152.000000 152.000000"
 preserveAspectRatio="xMidYMid meet">
<metadata>
Created by potrace 1.11, written by Peter Selinger 2001-2013
</metadata>
<g transform="translate(0.000000,152.000000) scale(0.100000,-0.100000)"
fill="#000000" stroke="none">
<path d="M400 1480 l0 -40 -40 0 -40 0 0 -80 0 -80 -40 0 -40 0 0 -160 0 -160
-40 0 -40 0 0 -120 0 -120 280 0 280 0 0 -280 0 -280 -40 0 -40 0 0 -40 0 -40
-80 0 -80 0 0 -40 0 -40 280 0 280 0 0 40 0 40 -80 0 -80 0 0 40 0 40 -40 0
-40 0 0 280 0 280 280 0 280 0 0 120 0 120 -40 0 -40 0 0 160 0 160 -40 0 -40
0 0 80 0 80 -40 0 -40 0 0 40 0 40 -360 0 -360 0 0 -40z"/>
</g>
</svg>
